<svg xmlns="http://www.w3.org/2000/svg" xmlns:xlink="http://www.w3.org/1999/xlink" width="187.45" height="135.633" viewBox="0 0 187.45 135.633">
  <defs>
    <linearGradient id="linear-gradient" x1="0.5" y1="1" x2="0.5" gradientUnits="objectBoundingBox">
      <stop offset="0" stop-color="gray" stop-opacity="0.251"/>
      <stop offset="0.54" stop-color="gray" stop-opacity="0.122"/>
      <stop offset="1" stop-color="gray" stop-opacity="0.102"/>
    </linearGradient>
  </defs>
  <g id="undraw_book_lover_mkck_1_" data-name="undraw_book_lover_mkck (1)" transform="translate(0 0)">
    <path id="Path_1095" data-name="Path 1095" d="M311.816,170.916c-5.927,9.693-4.879,22.859-2.339,33.24.85,3.476,1.832,7.142,1.076,11.037a16.993,16.993,0,0,1-7.583,10.665c-6.1,3.919-13.046,3.839-18.076-.207-4.354-3.5-7.2-9.615-11.645-12.923-7.441-5.536-17.688-2.117-26.6,3.129-6.307,3.709-13.249,8.4-19.049,5.788-4.081-1.841-6.6-7.072-7.774-12.773-.563-2.751-.9-5.758-2.206-7.853a8.623,8.623,0,0,0-2.967-2.755c-10.169-6.2-23.985-.921-33.786-7.948-6.62-4.747-10.355-14.589-11.549-25.127s-.137-21.827,1.18-32.942c.942-7.9,2.207-16.355,6.316-22.795,4.345-6.811,11.165-9.874,17.078-9.264s11.033,4.4,15.441,9.038c5.51,5.791,10.467,13.2,17.62,15.041,4.867,1.257,10.206-.245,15.391-1.1,8.668-1.436,17.207-1.071,25.682-.582,8.115.468,16.28,1.062,23.832,3.933,5.345,2.032,9.434,6.292,14.417,9.052,3.248,1.8,6.921,2.013,9.945,4.418a15.217,15.217,0,0,1,5.409,15.4C320.174,162,314.96,165.773,311.816,170.916Z" transform="translate(-150.014 -93.11)" fill="#868686" opacity="0.1"/>
    <path id="Path_1096" data-name="Path 1096" d="M309.641,150.9s-25.574-5.718,6.966-39.174c0,0,14.026,13.294,8.882,29.82a13.586,13.586,0,0,1-15.469,9.432Z" transform="translate(-258.49 -102.708)" fill="#868686"/>
    <path id="Path_1097" data-name="Path 1097" d="M310.024,150.9c-.561-.125-25.028-6.283,6.966-39.174,0,0,14.026,13.294,8.882,29.82a13.586,13.586,0,0,1-15.469,9.432Z" transform="translate(-258.872 -102.708)" fill="#fff" opacity="0.4"/>
    <path id="Path_1098" data-name="Path 1098" d="M357,151.1s13.508-20.349,6.631-39.364" transform="translate(-305.51 -102.716)" fill="none" stroke="#535461" stroke-miterlimit="10" stroke-width="1"/>
    <path id="Path_1099" data-name="Path 1099" d="M953.578,185.048s-4.408-17.747,2.272-30.383a27.7,27.7,0,0,0,2.982-17.269,46.6,46.6,0,0,0-2.11-8.256" transform="translate(-797.22 -117.092)" fill="none" stroke="#535461" stroke-miterlimit="10" stroke-width="2"/>
    <path id="Path_1100" data-name="Path 1100" d="M965.42,63.88c-.092,2.148-4.248,8.209-4.248,8.209s-3.622-6.394-3.53-8.543a3.893,3.893,0,1,1,7.779.334Z" transform="translate(-801.755 -59.82)" fill="#868686"/>
    <path id="Path_1101" data-name="Path 1101" d="M998.3,123.99c-1.244,1.754-8.028,4.583-8.028,4.583s.435-7.336,1.679-9.09a3.893,3.893,0,1,1,6.348,4.507Z" transform="translate(-828.713 -107.759)" fill="#868686"/>
    <path id="Path_1102" data-name="Path 1102" d="M985.893,234.737c-1.959.885-9.243-.1-9.243-.1s4.079-6.113,6.038-7a3.893,3.893,0,1,1,3.205,7.1Z" transform="translate(-817.461 -198.188)" fill="#868686"/>
    <path id="Path_1103" data-name="Path 1103" d="M961.517,323.588c-1.781,1.2-9.127,1.467-9.127,1.467s2.988-6.714,4.769-7.919a3.893,3.893,0,1,1,4.358,6.452Z" transform="translate(-797.417 -271.862)" fill="#868686"/>
    <path id="Path_1104" data-name="Path 1104" d="M938.134,148.787c1.476,1.564,8.588,3.42,8.588,3.42s-1.453-7.2-2.929-8.767a3.893,3.893,0,1,0-5.66,5.347Z" transform="translate(-784.76 -127.899)" fill="#868686"/>
    <path id="Path_1105" data-name="Path 1105" d="M906.238,248.009c1.877,1.043,9.212.7,9.212.7s-3.534-6.441-5.412-7.489a3.893,3.893,0,0,0-3.8,6.794Z" transform="translate(-757.706 -209.314)" fill="#868686"/>
    <path id="Path_1106" data-name="Path 1106" d="M895.041,352.881c1.672,1.35,8.967,2.242,8.967,2.242s-2.4-6.952-4.074-8.3a3.893,3.893,0,1,0-4.893,6.056Z" transform="translate(-748.841 -296.227)" fill="#868686"/>
    <path id="Path_1107" data-name="Path 1107" d="M965.42,63.88c-.092,2.148-4.248,8.209-4.248,8.209s-3.622-6.394-3.53-8.543a3.893,3.893,0,1,1,7.779.334Z" transform="translate(-801.755 -59.82)" fill="#fc6681"/>
    <path id="Path_1108" data-name="Path 1108" d="M998.3,123.99c-1.244,1.754-8.028,4.583-8.028,4.583s.435-7.336,1.679-9.09a3.893,3.893,0,1,1,6.348,4.507Z" transform="translate(-828.713 -107.759)" fill="#fc6681"/>
    <path id="Path_1109" data-name="Path 1109" d="M985.893,234.737c-1.959.885-9.243-.1-9.243-.1s4.079-6.113,6.038-7a3.893,3.893,0,1,1,3.205,7.1Z" transform="translate(-817.461 -198.188)" fill="#fc6681"/>
    <path id="Path_1110" data-name="Path 1110" d="M961.517,323.588c-1.781,1.2-9.127,1.467-9.127,1.467s2.988-6.714,4.769-7.919a3.893,3.893,0,1,1,4.358,6.452Z" transform="translate(-797.417 -271.862)" fill="#fc6681"/>
    <path id="Path_1111" data-name="Path 1111" d="M938.134,148.787c1.476,1.564,8.588,3.42,8.588,3.42s-1.453-7.2-2.929-8.767a3.893,3.893,0,1,0-5.66,5.347Z" transform="translate(-784.76 -127.899)" fill="#fc6681"/>
    <path id="Path_1112" data-name="Path 1112" d="M906.238,248.009c1.877,1.043,9.212.7,9.212.7s-3.534-6.441-5.412-7.489a3.893,3.893,0,0,0-3.8,6.794Z" transform="translate(-757.706 -209.314)" fill="#fc6681"/>
    <path id="Path_1113" data-name="Path 1113" d="M895.041,352.881c1.672,1.35,8.967,2.242,8.967,2.242s-2.4-6.952-4.074-8.3a3.893,3.893,0,1,0-4.893,6.056Z" transform="translate(-748.841 -296.227)" fill="#fc6681"/>
    <path id="Path_1114" data-name="Path 1114" d="M867.52,204.956s18.486-15.491,22.595-23.3a111.126,111.126,0,0,1,9.346-14.542" transform="translate(-727.298 -148.463)" fill="none" stroke="#535461" stroke-miterlimit="10" stroke-width="2"/>
    <path id="Path_1115" data-name="Path 1115" d="M999.335,258.994l-8-1.8S993.224,265.627,999.335,258.994Z" transform="translate(-829.597 -222.886)" fill="#868686"/>
    <path id="Path_1116" data-name="Path 1116" d="M961.26,218l4.6,6.893S956.869,225.547,961.26,218Z" transform="translate(-803.747 -190.508)" fill="#868686"/>
    <path id="Path_1117" data-name="Path 1117" d="M1020.69,224.193l-7.31-1.283S1017.974,229.9,1020.69,224.193Z" transform="translate(-847.807 -194.564)" fill="#868686"/>
    <path id="Path_1118" data-name="Path 1118" d="M989.91,194.86l3.608,4.717S987.131,200.178,989.91,194.86Z" transform="translate(-827.837 -171.389)" fill="#868686"/>
    <path id="Path_1119" data-name="Path 1119" d="M1035.14,189.45s6.231.3,6.952.892-.928,4.081-3.3,3.513S1035.14,189.45,1035.14,189.45Z" transform="translate(-865.785 -166.92)" fill="#868686"/>
    <path id="Path_1120" data-name="Path 1120" d="M1009.8,157.44s2.543,4.634,2.447,5.515-3.874,1.872-4.639-1.469A3.146,3.146,0,0,1,1009.8,157.44Z" transform="translate(-842.935 -140.473)" fill="#868686"/>
    <circle id="Ellipse_145" data-name="Ellipse 145" cx="1.738" cy="1.738" r="1.738" transform="translate(171.366 20.579) rotate(-72.43)" fill="#ffd037"/>
    <circle id="Ellipse_146" data-name="Ellipse 146" cx="1.738" cy="1.738" r="1.738" transform="translate(168.646 18.806) rotate(-72.43)" fill="#ffd037"/>
    <path id="Path_1121" data-name="Path 1121" d="M253.253,145.837s7.474-5.562-1.912-25.028c0,0-12.514-15.469,0-30.069,0,0-27.288.7-26.766,26.071s13.644,29.026,13.644,29.026Z" transform="translate(-196.095 -85.366)" fill="#868686"/>
    <path id="Path_1122" data-name="Path 1122" d="M303.951,145.812s-1.882-13.383-6.923-21.552a17.522,17.522,0,0,1-2.119-5.343,21.874,21.874,0,0,1,6.16-20.461l7.952-7.747" transform="translate(-253.773 -85.341)" fill="none" stroke="#535461" stroke-miterlimit="10" stroke-width="2"/>
    <path id="Path_1123" data-name="Path 1123" d="M456.708,150.69s1.717,2.246-.793,5.635-4.578,6.257-3.742,8.364c0,0,3.785-6.3,6.867-6.384S460.1,154.476,456.708,150.69Z" transform="translate(-383.986 -134.896)" fill="#868686"/>
    <path id="Path_1124" data-name="Path 1124" d="M457.158,150.69a2.782,2.782,0,0,1,.348.7c3.007,3.532,4.608,6.829,1.719,6.912-2.692.076-5.922,4.891-6.7,6.106a2.623,2.623,0,0,0,.092.276s3.785-6.3,6.867-6.384S460.548,154.476,457.158,150.69Z" transform="translate(-384.436 -134.896)" opacity="0.1"/>
    <path id="Path_1125" data-name="Path 1125" d="M495.636,164.746c0,.791-.089,1.43-.2,1.43s-.2-.641-.2-1.43.111-.419.221-.419S495.636,163.957,495.636,164.746Z" transform="translate(-419.723 -146.092)" fill="#ffd037"/>
    <path id="Path_1126" data-name="Path 1126" d="M497.383,170.007c-.7.379-1.3.607-1.35.511s.468-.48,1.161-.859.421-.1.473,0S498.077,169.629,497.383,170.007Z" transform="translate(-420.375 -150.409)" fill="#ffd037"/>
    <path id="Path_1127" data-name="Path 1127" d="M408.685,150.69s-1.717,2.246.793,5.635,4.578,6.257,3.742,8.364c0,0-3.785-6.3-6.867-6.384S405.292,154.476,408.685,150.69Z" transform="translate(-345.028 -134.896)" fill="#868686"/>
    <path id="Path_1128" data-name="Path 1128" d="M408.673,150.69a2.782,2.782,0,0,0-.348.7c-3.007,3.532-4.608,6.829-1.719,6.912,2.692.076,5.922,4.891,6.7,6.106a2.609,2.609,0,0,1-.092.276s-3.791-6.3-6.872-6.382S405.28,154.476,408.673,150.69Z" transform="translate(-345.016 -134.896)" opacity="0.1"/>
    <path id="Path_1129" data-name="Path 1129" d="M408.62,164.746c0,.791.089,1.43.2,1.43s.2-.641.2-1.43-.111-.419-.221-.419S408.62,163.957,408.62,164.746Z" transform="translate(-348.158 -146.092)" fill="#ffd037"/>
    <path id="Path_1130" data-name="Path 1130" d="M400.314,170.007c.7.379,1.3.607,1.35.511s-.467-.48-1.161-.859-.421-.1-.473,0S399.621,169.629,400.314,170.007Z" transform="translate(-340.947 -150.409)" fill="#ffd037"/>
    <path id="Path_1131" data-name="Path 1131" d="M248.2,285.57l-15.227-67h-5.657c-.226-2.56-.377-5.04-.435-7.376,0,0-20.509,4.488-36.864-8.5s-35.583,1.123-35.583,1.123l-.075-.054v.007c-1.335-.945-19.755-13.569-35.5-1.065-16.348,12.983-36.864,8.5-36.864,8.5-.057,2.365-.21,4.867-.441,7.451H76.3L60.75,285.811s63.213,2.367,85.365.184c.794,1.679,4.218,2.941,8.32,2.941,4.609,0,8.358-1.594,8.489-3.58C180.167,286.668,217.271,288.766,248.2,285.57Z" transform="translate(-60.75 -173.328)" fill="url(#linear-gradient)"/>
    <path id="Path_1132" data-name="Path 1132" d="M87.224,323.156,72,388.914s83.8,3.139,90.553-1.255c0,0,52.026,5.258,92.986,1.02l-14.909-65.6Z" transform="translate(-70.045 -277.324)" fill="#e2e2ec"/>
    <path id="Path_1133" data-name="Path 1133" d="M121.923,336.243,107.73,397.55s78.133,2.927,84.425-1.17c0,0,48.5,4.9,86.693.951l-13.9-61.161Z" transform="translate(-99.565 -288.139)" opacity="0.1"/>
    <path id="Path_1134" data-name="Path 1134" d="M273.837,216.432s-20.089,4.394-36.1-8.318-34.841,1.1-34.841,1.1-18.832-13.811-34.839-1.1-36.1,8.318-36.1,8.318c-.633,25.581-12.554,67.013-12.554,67.013s21.971,5.963,51.005-6.12,32.486,4.237,32.486,4.237,3.452-16.322,32.486-4.237,51.005,6.12,51.005,6.12S274.465,242.012,273.837,216.432Z" transform="translate(-109.215 -177.895)" fill="#f1f2fb"/>
    <path id="Path_1135" data-name="Path 1135" d="M376.75,646.16s26.523-5.963,38.759,2.824c0,0,11.77-10.672,39.077-2.353" transform="translate(-321.827 -542.019)" opacity="0.1"/>
    <ellipse id="Ellipse_147" data-name="Ellipse 147" cx="8.318" cy="3.61" rx="8.318" ry="3.61" transform="translate(85.367 107.431)" fill="#e8eaf8"/>
    <path id="Path_1136" data-name="Path 1136" d="M599.32,239.55s5.963,30.289.156,72.976" transform="translate(-505.713 -208.312)" opacity="0.1"/>
    <path id="Path_1137" data-name="Path 1137" d="M224.7,306.634s12.491,2.9,23.3,0,30.665-12.4,37.195,0" transform="translate(-196.204 -258.603)" fill="none" stroke="#000" stroke-miterlimit="10" stroke-width="4" opacity="0.1"/>
    <path id="Path_1138" data-name="Path 1138" d="M224.7,356.8s12.491,2.9,23.3,0,34.224-2.746,37.195,0" transform="translate(-196.204 -303.432)" fill="none" stroke="#000" stroke-miterlimit="10" stroke-width="4" opacity="0.1"/>
    <path id="Path_1139" data-name="Path 1139" d="M224.7,391.464s12.491,2.9,23.3,0,30.665-12.4,37.195,0" transform="translate(-196.204 -328.689)" fill="none" stroke="#000" stroke-miterlimit="10" stroke-width="4" opacity="0.1"/>
    <path id="Path_1140" data-name="Path 1140" d="M224.7,441.669s12.491,2.9,23.3,0,34.224-2.746,37.195,0" transform="translate(-196.204 -373.551)" fill="none" stroke="#000" stroke-miterlimit="10" stroke-width="4" opacity="0.1"/>
    <path id="Path_1141" data-name="Path 1141" d="M687.268,306.634s-12.491,2.9-23.3,0-30.665-12.4-37.195,0" transform="translate(-528.392 -258.603)" fill="none" stroke="#000" stroke-miterlimit="10" stroke-width="4" opacity="0.1"/>
    <path id="Path_1142" data-name="Path 1142" d="M687.268,356.8s-12.491,2.9-23.3,0-34.224-2.746-37.195,0" transform="translate(-528.392 -303.432)" fill="none" stroke="#000" stroke-miterlimit="10" stroke-width="4" opacity="0.1"/>
    <path id="Path_1143" data-name="Path 1143" d="M687.268,391.464s-12.491,2.9-23.3,0-30.665-12.4-37.195,0" transform="translate(-528.392 -328.689)" fill="none" stroke="#000" stroke-miterlimit="10" stroke-width="4" opacity="0.1"/>
    <path id="Path_1144" data-name="Path 1144" d="M687.268,441.669s-12.491,2.9-23.3,0-34.224-2.746-37.195,0" transform="translate(-528.392 -373.551)" fill="none" stroke="#000" stroke-miterlimit="10" stroke-width="4" opacity="0.1"/>
  </g>
</svg>
